<svg width="32" height="32" xmlns="http://www.w3.org/2000/svg">

 <g>
  <title>background</title>
  <rect fill="none" id="canvas_background" height="402" width="582" y="-1" x="-1"/>
 </g>
 <g>
  <title>Layer 1</title>
  <path fill="#ffffff" id="svg_1" d="m29.707,15.793l-13,-13c-0.391,-0.391 -1.023,-0.391 -1.414,0l-13,13c-0.391,0.391 -0.391,1.023 0,1.414s1.023,0.391 1.414,0l12.293,-12.293l8.014,8.014c-0.001,0.025 -0.014,0.047 -0.014,0.072l0,15l-16,0l0,-10c0,-0.553 -0.448,-1 -1,-1s-1,0.447 -1,1l0,11c0,0.553 0.448,1 1,1l18,0c0.553,0 1,-0.447 1,-1l0,-14.086l2.293,2.293c0.195,0.195 0.451,0.293 0.707,0.293s0.512,-0.098 0.707,-0.293c0.391,-0.391 0.391,-1.023 0,-1.414z"/>
 </g>
</svg>