<?xml version="1.0" encoding="UTF-8" standalone="no"?><!DOCTYPE svg PUBLIC "-//W3C//DTD SVG 1.1//EN" "http://www.w3.org/Graphics/SVG/1.1/DTD/svg11.dtd"><svg width="100%" height="100%" viewBox="0 0 100 100" version="1.1" xmlns="http://www.w3.org/2000/svg" xmlns:xlink="http://www.w3.org/1999/xlink" xml:space="preserve" xmlns:serif="http://www.serif.com/" style="fill-rule:evenodd;clip-rule:evenodd;stroke-linejoin:round;stroke-miterlimit:2;"><g><path id="svg_1" d="M69.28,5l-55.44,0l0,90l72.32,0l-0,-73.12l-16.88,-16.88Zm-0.28,3.68l13.48,13.49l-13.48,0l-0,-13.49Zm-52.34,83.51l-0,-84.38l49.51,0l-0,17.19l17.17,0l-0,67.2l-66.68,-0.01Z" style="fill:#fff;fill-rule:nonzero;stroke:#fff;stroke-width:1.74px;"/><path id="svg_2" d="M54.47,45c-1.146,1.137 -1.791,2.686 -1.791,4.3c-0,3.322 2.734,6.056 6.056,6.056c1.597,0 3.131,-0.631 4.265,-1.756c1.146,-1.137 1.791,-2.686 1.791,-4.3c0,-3.322 -2.734,-6.056 -6.056,-6.056c-1.597,-0 -3.131,0.631 -4.265,1.756Zm6.53,6.61c-0.606,0.599 -1.425,0.935 -2.277,0.935c-1.777,0 -3.24,-1.463 -3.24,-3.24c0,-1.777 1.463,-3.24 3.24,-3.24c0.852,0 1.671,0.336 2.277,0.935c0.616,0.608 0.963,1.439 0.963,2.305c0,0.866 -0.347,1.697 -0.963,2.305Z" style="fill:#fff;fill-rule:nonzero;stroke:#fff;stroke-width:1.74px;"/><path id="svg_3" d="M73.94,31.61c-7.4,-0.84 -14.08,0.32 -19.73,3.43c-3.205,1.772 -6.091,4.067 -8.54,6.79l-12.62,0c-0.797,-0.005 -1.564,0.309 -2.13,0.87l-8.51,8.3c-0.59,0.566 -0.923,1.348 -0.923,2.165c-0,0.817 0.333,1.599 0.923,2.165l3.72,3.72c1.116,1.067 2.865,1.152 4.08,0.2c1.53,-1.282 3.446,-2.014 5.44,-2.08c-0.9,1.79 -1.7,3.46 -2.34,4.82l-0.42,0.89l12.3,12.3l0.89,-0.42c1.4,-0.66 3.14,-1.48 5,-2.42c-0.099,2.093 -0.891,4.095 -2.25,5.69c-1.007,1.196 -0.919,2.988 0.2,4.08l3.54,3.54c0.565,0.583 1.343,0.913 2.155,0.913c0.812,-0 1.59,-0.33 2.155,-0.913l8.51,-8.51c0.556,-0.572 0.863,-1.342 0.85,-2.14l0,-12.6c2.713,-2.451 4.997,-5.337 6.76,-8.54c3.11,-5.68 4.27,-12.32 3.43,-19.74c-0.14,-1.311 -1.18,-2.359 -2.49,-2.51Zm-3.39,20.9c-1.725,3.104 -3.979,5.882 -6.66,8.21l-0.47,0.42l0,13.86c0,0.064 -0.025,0.125 -0.07,0.17l-8.5,8.5c-0.092,0.087 -0.238,0.087 -0.33,0l-3.52,-3.52c-0.08,-0.087 -0.08,-0.223 0,-0.31c2.246,-2.755 3.272,-6.312 2.84,-9.84l-0.15,-2.16l-1.91,1c-2.16,1.14 -4.28,2.17 -6,3l-9.51,-9.51c0.8,-1.7 1.8,-3.76 2.91,-5.85l1,-1.92l-2.18,-0.16l-1.47,0c-2.953,-0.102 -5.845,0.876 -8.13,2.75c-0.04,0.044 -0.096,0.068 -0.155,0.068c-0.059,0 -0.115,-0.024 -0.155,-0.068l-3.72,-3.72c-0.045,-0.043 -0.07,-0.103 -0.07,-0.165c0,-0.062 0.025,-0.122 0.07,-0.165l8.51,-8.32c0.042,-0.043 0.1,-0.069 0.16,-0.07l13.88,0l0.42,-0.47c2.33,-2.686 5.112,-4.943 8.22,-6.67c5.15,-2.82 11.26,-3.87 18.07,-3.1c0.8,6.8 -0.24,12.88 -3.07,18.05l-0.01,-0.01Z" style="fill:#fff;fill-rule:nonzero;stroke:#fff;stroke-width:1.74px;"/></g></svg>